<?xml version="1.0" standalone="no"?>
<!DOCTYPE svg PUBLIC "-//W3C//DTD SVG 20010904//EN"
 "http://www.w3.org/TR/2001/REC-SVG-20010904/DTD/svg10.dtd">
<svg version="1.0" xmlns="http://www.w3.org/2000/svg"
 width="460.000000pt" height="460.000000pt" viewBox="0 0 460.000000 460.000000"
 preserveAspectRatio="xMidYMid meet">
<metadata>
Created by potrace 1.11, written by Peter Selinger 2001-2013
</metadata>
<g transform="translate(0.000000,460.000000) scale(0.100000,-0.100000)"
fill="#000000" stroke="none">
<path d="M635 4451 c-3 -9 -2 -332 1 -716 8 -852 8 -1850 1 -1887 -5 -25 21
-55 294 -328 164 -166 299 -305 299 -311 0 -5 5 -9 11 -9 6 0 55 -46 109 -102
55 -57 104 -107 110 -113 6 -5 30 -30 53 -53 23 -24 53 -53 66 -65 33 -30 72
-70 96 -98 11 -13 39 -40 63 -59 23 -19 42 -38 42 -43 0 -11 26 -37 38 -37 5
0 17 -10 25 -22 15 -23 74 -84 118 -124 13 -12 51 -49 84 -83 32 -33 63 -61
67 -61 4 0 8 -5 8 -11 0 -6 37 -46 81 -89 96 -93 88 -93 178 8 16 17 32 32 35
32 3 0 16 11 30 25 14 14 23 25 21 25 -2 0 10 16 28 35 17 19 38 35 44 35 7 0
13 3 13 8 0 13 95 112 108 112 6 0 12 4 12 9 0 14 345 361 359 361 6 0 11 5
11 12 0 6 59 69 130 139 72 70 130 133 130 139 0 5 4 10 10 10 11 0 120 110
120 122 0 4 5 8 11 8 6 0 29 19 50 43 21 23 44 47 49 52 6 6 28 27 48 48 20
21 50 51 65 65 47 44 81 78 103 103 11 13 36 38 55 55 19 18 48 47 65 65 17
19 41 41 52 51 20 16 20 24 20 625 0 334 2 777 5 983 5 340 10 954 8 1023 -1
16 -7 27 -15 27 -16 0 -200 -100 -204 -112 -2 -4 -23 -17 -48 -27 -24 -11 -68
-36 -97 -55 -30 -20 -59 -36 -65 -36 -6 0 -12 -4 -14 -8 -1 -5 -36 -26 -75
-47 -40 -20 -73 -41 -73 -46 0 -5 -9 -9 -20 -9 -11 0 -20 -3 -20 -7 0 -5 -26
-21 -58 -37 -31 -16 -78 -44 -103 -62 -25 -19 -66 -43 -90 -54 -73 -34 -123
-64 -140 -82 -9 -10 -22 -18 -30 -18 -17 0 -119 -62 -119 -72 0 -4 -9 -8 -20
-8 -11 0 -20 -4 -20 -10 0 -5 -6 -10 -14 -10 -8 0 -16 -3 -18 -7 -1 -5 -32
-23 -68 -42 -36 -19 -73 -43 -82 -53 -9 -11 -20 -19 -25 -18 -14 2 -103 -43
-103 -52 0 -4 -4 -8 -10 -8 -5 0 -37 -18 -71 -40 -34 -22 -67 -40 -73 -40 -6
0 -28 11 -47 25 -20 13 -39 21 -43 18 -3 -4 -6 -1 -6 5 0 6 -8 13 -18 16 -10
4 -27 14 -38 24 -10 10 -43 29 -71 42 -29 13 -53 27 -53 32 0 4 -7 8 -15 8 -8
0 -15 4 -15 8 0 5 -20 17 -45 28 -25 10 -45 22 -45 26 0 4 -5 8 -11 8 -6 0
-43 21 -82 47 -40 26 -75 46 -79 45 -5 -1 -8 3 -8 8 0 6 -9 10 -20 10 -11 0
-20 5 -20 11 0 5 -4 7 -10 4 -5 -3 -10 -1 -10 4 0 6 -22 22 -48 35 -27 13 -54
32 -61 40 -8 9 -21 16 -30 16 -9 0 -40 16 -68 35 -29 19 -55 35 -58 35 -4 0
-13 6 -20 13 -32 28 -42 34 -68 41 -15 3 -27 11 -27 16 0 6 -6 10 -14 10 -8 0
-36 15 -62 33 -27 18 -70 43 -96 56 -27 13 -48 28 -48 33 0 4 -6 8 -12 8 -7 0
-40 18 -73 40 -33 22 -63 40 -67 40 -4 0 -38 20 -75 43 -37 24 -94 58 -125 75
-51 28 -58 29 -63 13z"/>
</g>
</svg>
